<mxfile host="app.diagrams.net" agent="Mozilla/5.0 (Windows NT 10.0; Win64; x64) AppleWebKit/537.36 (KHTML, like Gecko) Chrome/136.0.0.0 Safari/537.36" version="27.0.9">
  <diagram name="Page-1" id="2YBvvXClWsGukQMizWep">
    <mxGraphModel dx="1226" dy="667" grid="1" gridSize="10" guides="1" tooltips="1" connect="1" arrows="1" fold="1" page="1" pageScale="1" pageWidth="850" pageHeight="1100" math="0" shadow="0">
      <root>
        <mxCell id="0" />
        <mxCell id="1" parent="0" />
        <mxCell id="5y46x8tf9IevXGczSYyH-1" value="Actor" style="shape=umlActor;verticalLabelPosition=bottom;verticalAlign=top;html=1;outlineConnect=0;" parent="1" vertex="1">
          <mxGeometry x="20" y="30" width="30" height="60" as="geometry" />
        </mxCell>
        <mxCell id="5y46x8tf9IevXGczSYyH-2" value="DB" style="rounded=0;whiteSpace=wrap;html=1;" parent="1" vertex="1">
          <mxGeometry x="890" y="10" width="120" height="20" as="geometry" />
        </mxCell>
        <mxCell id="5y46x8tf9IevXGczSYyH-3" value="OffersScreenClass" style="rounded=0;whiteSpace=wrap;html=1;" parent="1" vertex="1">
          <mxGeometry x="460" y="10" width="110" height="20" as="geometry" />
        </mxCell>
        <mxCell id="5y46x8tf9IevXGczSYyH-4" value="OffersScreen" style="rounded=0;whiteSpace=wrap;html=1;" parent="1" vertex="1">
          <mxGeometry x="600" y="10" width="120" height="20" as="geometry" />
        </mxCell>
        <mxCell id="5y46x8tf9IevXGczSYyH-5" value="HomeScreenAdmin" style="rounded=0;whiteSpace=wrap;html=1;" parent="1" vertex="1">
          <mxGeometry x="110" y="10" width="120" height="20" as="geometry" />
        </mxCell>
        <mxCell id="5y46x8tf9IevXGczSYyH-6" value="" style="endArrow=none;dashed=1;html=1;rounded=0;fontSize=12;startSize=8;endSize=8;curved=1;entryX=0.5;entryY=1;entryDx=0;entryDy=0;" parent="1" target="5y46x8tf9IevXGczSYyH-4" edge="1">
          <mxGeometry width="50" height="50" relative="1" as="geometry">
            <mxPoint x="660" y="650" as="sourcePoint" />
            <mxPoint x="660" y="100" as="targetPoint" />
          </mxGeometry>
        </mxCell>
        <mxCell id="5y46x8tf9IevXGczSYyH-7" value="" style="endArrow=none;dashed=1;html=1;rounded=0;fontSize=12;startSize=8;endSize=8;curved=1;" parent="1" source="5y46x8tf9IevXGczSYyH-13" edge="1">
          <mxGeometry width="50" height="50" relative="1" as="geometry">
            <mxPoint x="514.5" y="560" as="sourcePoint" />
            <mxPoint x="514.5" y="30" as="targetPoint" />
          </mxGeometry>
        </mxCell>
        <mxCell id="5y46x8tf9IevXGczSYyH-8" value="" style="endArrow=none;dashed=1;html=1;rounded=0;fontSize=12;startSize=8;endSize=8;curved=1;entryX=0.5;entryY=1;entryDx=0;entryDy=0;" parent="1" source="5y46x8tf9IevXGczSYyH-15" edge="1" target="5y46x8tf9IevXGczSYyH-5">
          <mxGeometry width="50" height="50" relative="1" as="geometry">
            <mxPoint x="170" y="570" as="sourcePoint" />
            <mxPoint x="170" y="40" as="targetPoint" />
          </mxGeometry>
        </mxCell>
        <mxCell id="5y46x8tf9IevXGczSYyH-9" value="" style="endArrow=none;dashed=1;html=1;rounded=0;fontSize=12;startSize=8;endSize=8;curved=1;" parent="1" edge="1">
          <mxGeometry width="50" height="50" relative="1" as="geometry">
            <mxPoint x="35" y="660" as="sourcePoint" />
            <mxPoint x="34.5" y="110" as="targetPoint" />
          </mxGeometry>
        </mxCell>
        <mxCell id="5y46x8tf9IevXGczSYyH-12" value="" style="html=1;points=[[0,0,0,0,5],[0,1,0,0,-5],[1,0,0,0,5],[1,1,0,0,-5]];perimeter=orthogonalPerimeter;outlineConnect=0;targetShapes=umlLifeline;portConstraint=eastwest;newEdgeStyle={&quot;curved&quot;:0,&quot;rounded&quot;:0};fillColor=#0050ef;fontColor=#ffffff;strokeColor=#001DBC;" parent="1" vertex="1">
          <mxGeometry x="655" y="150" width="10" height="70" as="geometry" />
        </mxCell>
        <mxCell id="5y46x8tf9IevXGczSYyH-14" value="" style="endArrow=none;dashed=1;html=1;rounded=0;fontSize=12;startSize=8;endSize=8;curved=1;" parent="1" target="5y46x8tf9IevXGczSYyH-15" edge="1">
          <mxGeometry width="50" height="50" relative="1" as="geometry">
            <mxPoint x="170" y="660" as="sourcePoint" />
            <mxPoint x="170" y="40" as="targetPoint" />
          </mxGeometry>
        </mxCell>
        <mxCell id="5y46x8tf9IevXGczSYyH-15" value="" style="html=1;points=[[0,0,0,0,5],[0,1,0,0,-5],[1,0,0,0,5],[1,1,0,0,-5]];perimeter=orthogonalPerimeter;outlineConnect=0;targetShapes=umlLifeline;portConstraint=eastwest;newEdgeStyle={&quot;curved&quot;:0,&quot;rounded&quot;:0};fillColor=#0050ef;fontColor=#ffffff;strokeColor=#001DBC;" parent="1" vertex="1">
          <mxGeometry x="165" y="100" width="10" height="60" as="geometry" />
        </mxCell>
        <mxCell id="5y46x8tf9IevXGczSYyH-16" value="" style="endArrow=none;dashed=1;html=1;rounded=0;fontSize=12;startSize=8;endSize=8;curved=1;" parent="1" target="5y46x8tf9IevXGczSYyH-13" edge="1">
          <mxGeometry width="50" height="50" relative="1" as="geometry">
            <mxPoint x="515" y="650" as="sourcePoint" />
            <mxPoint x="514.5" y="30" as="targetPoint" />
          </mxGeometry>
        </mxCell>
        <mxCell id="5y46x8tf9IevXGczSYyH-13" value="" style="html=1;points=[[0,0,0,0,5],[0,1,0,0,-5],[1,0,0,0,5],[1,1,0,0,-5]];perimeter=orthogonalPerimeter;outlineConnect=0;targetShapes=umlLifeline;portConstraint=eastwest;newEdgeStyle={&quot;curved&quot;:0,&quot;rounded&quot;:0};fillColor=#0050ef;fontColor=#ffffff;strokeColor=#001DBC;" parent="1" vertex="1">
          <mxGeometry x="510" y="160" width="10" height="230" as="geometry" />
        </mxCell>
        <mxCell id="5y46x8tf9IevXGczSYyH-17" value="Select Offers" style="html=1;verticalAlign=bottom;endArrow=block;curved=0;rounded=0;fontSize=12;startSize=8;endSize=8;" parent="1" target="5y46x8tf9IevXGczSYyH-15" edge="1">
          <mxGeometry width="80" relative="1" as="geometry">
            <mxPoint x="40" y="140" as="sourcePoint" />
            <mxPoint x="120" y="139.5" as="targetPoint" />
          </mxGeometry>
        </mxCell>
        <mxCell id="5y46x8tf9IevXGczSYyH-18" value="AdminHomeScreen()" style="html=1;verticalAlign=bottom;endArrow=block;curved=0;rounded=0;fontSize=12;startSize=8;endSize=8;" parent="1" target="5y46x8tf9IevXGczSYyH-15" edge="1" source="pMLUfj82sf-V-NWl08HH-3">
          <mxGeometry width="80" relative="1" as="geometry">
            <mxPoint x="290" y="100" as="sourcePoint" />
            <mxPoint x="200" y="100" as="targetPoint" />
          </mxGeometry>
        </mxCell>
        <mxCell id="5y46x8tf9IevXGczSYyH-19" value="go_to_offers()" style="html=1;verticalAlign=bottom;endArrow=block;curved=0;rounded=0;fontSize=12;startSize=8;endSize=8;" parent="1" edge="1">
          <mxGeometry x="-0.4328" width="80" relative="1" as="geometry">
            <mxPoint x="175" y="160" as="sourcePoint" />
            <mxPoint x="510" y="160" as="targetPoint" />
            <mxPoint as="offset" />
          </mxGeometry>
        </mxCell>
        <mxCell id="5y46x8tf9IevXGczSYyH-23" value="" style="endArrow=none;dashed=1;html=1;rounded=0;fontSize=12;startSize=8;endSize=8;curved=1;entryX=0.667;entryY=1.1;entryDx=0;entryDy=0;entryPerimeter=0;" parent="1" source="5y46x8tf9IevXGczSYyH-22" edge="1">
          <mxGeometry width="50" height="50" relative="1" as="geometry">
            <mxPoint x="950.83" y="560" as="sourcePoint" />
            <mxPoint x="949.1700000000001" y="30" as="targetPoint" />
          </mxGeometry>
        </mxCell>
        <mxCell id="5y46x8tf9IevXGczSYyH-24" value="Select Parking" style="html=1;verticalAlign=bottom;endArrow=block;curved=0;rounded=0;fontSize=12;startSize=8;endSize=8;" parent="1" edge="1">
          <mxGeometry x="-0.2846" width="80" relative="1" as="geometry">
            <mxPoint x="42.5" y="190" as="sourcePoint" />
            <mxPoint x="657.5" y="189.9999999999999" as="targetPoint" />
            <mxPoint as="offset" />
          </mxGeometry>
        </mxCell>
        <mxCell id="5y46x8tf9IevXGczSYyH-26" value="_init_()" style="html=1;verticalAlign=bottom;endArrow=block;curved=0;rounded=0;fontSize=12;startSize=8;endSize=8;" parent="1" source="5y46x8tf9IevXGczSYyH-13" edge="1">
          <mxGeometry x="0.5" width="80" relative="1" as="geometry">
            <mxPoint x="665" y="239.9999999999999" as="sourcePoint" />
            <mxPoint x="800" y="239.9999999999999" as="targetPoint" />
            <Array as="points">
              <mxPoint x="710" y="240" />
            </Array>
            <mxPoint x="-1" as="offset" />
          </mxGeometry>
        </mxCell>
        <mxCell id="5y46x8tf9IevXGczSYyH-27" value="Selects offers" style="html=1;verticalAlign=bottom;endArrow=block;curved=0;rounded=0;fontSize=12;startSize=8;endSize=8;" parent="1" edge="1">
          <mxGeometry x="-0.4474" width="80" relative="1" as="geometry">
            <mxPoint x="40" y="270" as="sourcePoint" />
            <mxPoint x="800" y="270" as="targetPoint" />
            <mxPoint x="1" as="offset" />
          </mxGeometry>
        </mxCell>
        <mxCell id="5y46x8tf9IevXGczSYyH-28" value="save_offers()" style="html=1;verticalAlign=bottom;endArrow=block;curved=0;rounded=0;fontSize=12;startSize=8;endSize=8;" parent="1" edge="1" target="5y46x8tf9IevXGczSYyH-35">
          <mxGeometry x="-0.4474" width="80" relative="1" as="geometry">
            <mxPoint x="40" y="320" as="sourcePoint" />
            <mxPoint x="590" y="320" as="targetPoint" />
            <mxPoint x="1" as="offset" />
          </mxGeometry>
        </mxCell>
        <mxCell id="5y46x8tf9IevXGczSYyH-30" value="" style="endArrow=none;dashed=1;html=1;rounded=0;fontSize=12;startSize=8;endSize=8;curved=1;entryX=0.667;entryY=1.1;entryDx=0;entryDy=0;entryPerimeter=0;" parent="1" target="5y46x8tf9IevXGczSYyH-22" edge="1">
          <mxGeometry width="50" height="50" relative="1" as="geometry">
            <mxPoint x="951" y="640" as="sourcePoint" />
            <mxPoint x="949.1700000000001" y="30" as="targetPoint" />
          </mxGeometry>
        </mxCell>
        <mxCell id="5y46x8tf9IevXGczSYyH-22" value="" style="html=1;points=[[0,0,0,0,5],[0,1,0,0,-5],[1,0,0,0,5],[1,1,0,0,-5]];perimeter=orthogonalPerimeter;outlineConnect=0;targetShapes=umlLifeline;portConstraint=eastwest;newEdgeStyle={&quot;curved&quot;:0,&quot;rounded&quot;:0};fillColor=#0050ef;fontColor=#ffffff;strokeColor=#001DBC;" parent="1" vertex="1">
          <mxGeometry x="940" y="330" width="10" height="30" as="geometry" />
        </mxCell>
        <mxCell id="5y46x8tf9IevXGczSYyH-32" value="ParkingScreen" style="rounded=0;whiteSpace=wrap;html=1;" parent="1" vertex="1">
          <mxGeometry x="750" y="10" width="110" height="20" as="geometry" />
        </mxCell>
        <mxCell id="5y46x8tf9IevXGczSYyH-33" value="" style="endArrow=none;dashed=1;html=1;rounded=0;fontSize=12;startSize=8;endSize=8;curved=1;" parent="1" edge="1">
          <mxGeometry width="50" height="50" relative="1" as="geometry">
            <mxPoint x="805" y="140" as="sourcePoint" />
            <mxPoint x="804.5" y="30" as="targetPoint" />
          </mxGeometry>
        </mxCell>
        <mxCell id="5y46x8tf9IevXGczSYyH-36" value="" style="endArrow=none;dashed=1;html=1;rounded=0;fontSize=12;startSize=8;endSize=8;curved=1;" parent="1" source="5y46x8tf9IevXGczSYyH-35" edge="1">
          <mxGeometry width="50" height="50" relative="1" as="geometry">
            <mxPoint x="804.5" y="540" as="sourcePoint" />
            <mxPoint x="804.5" y="140" as="targetPoint" />
          </mxGeometry>
        </mxCell>
        <mxCell id="5y46x8tf9IevXGczSYyH-37" value="" style="endArrow=none;dashed=1;html=1;rounded=0;fontSize=12;startSize=8;endSize=8;curved=1;" parent="1" target="5y46x8tf9IevXGczSYyH-35" edge="1">
          <mxGeometry width="50" height="50" relative="1" as="geometry">
            <mxPoint x="805" y="650" as="sourcePoint" />
            <mxPoint x="804.5" y="140" as="targetPoint" />
          </mxGeometry>
        </mxCell>
        <mxCell id="5y46x8tf9IevXGczSYyH-35" value="" style="html=1;points=[[0,0,0,0,5],[0,1,0,0,-5],[1,0,0,0,5],[1,1,0,0,-5]];perimeter=orthogonalPerimeter;outlineConnect=0;targetShapes=umlLifeline;portConstraint=eastwest;newEdgeStyle={&quot;curved&quot;:0,&quot;rounded&quot;:0};fillColor=#0050ef;fontColor=#ffffff;strokeColor=#001DBC;" parent="1" vertex="1">
          <mxGeometry x="800" y="240" width="10" height="150" as="geometry" />
        </mxCell>
        <mxCell id="5y46x8tf9IevXGczSYyH-38" style="edgeStyle=none;curved=0;rounded=0;orthogonalLoop=1;jettySize=auto;html=1;exitX=0;exitY=1;exitDx=0;exitDy=-5;exitPerimeter=0;fontSize=12;startSize=8;endSize=8;" parent="1" source="5y46x8tf9IevXGczSYyH-12" target="5y46x8tf9IevXGczSYyH-12" edge="1">
          <mxGeometry relative="1" as="geometry" />
        </mxCell>
        <mxCell id="5y46x8tf9IevXGczSYyH-40" value="add_offer()" style="html=1;verticalAlign=bottom;endArrow=block;curved=0;rounded=0;fontSize=12;startSize=8;endSize=8;" parent="1" edge="1">
          <mxGeometry x="-0.0045" width="80" relative="1" as="geometry">
            <mxPoint x="810" y="330" as="sourcePoint" />
            <mxPoint x="940" y="330" as="targetPoint" />
            <mxPoint as="offset" />
          </mxGeometry>
        </mxCell>
        <mxCell id="5y46x8tf9IevXGczSYyH-41" value="return results" style="html=1;verticalAlign=bottom;endArrow=open;dashed=1;endSize=8;curved=0;rounded=0;fontSize=12;" parent="1" target="5y46x8tf9IevXGczSYyH-13" edge="1">
          <mxGeometry relative="1" as="geometry">
            <mxPoint x="950" y="360" as="sourcePoint" />
            <mxPoint x="870" y="360" as="targetPoint" />
          </mxGeometry>
        </mxCell>
        <mxCell id="5y46x8tf9IevXGczSYyH-42" value="Show Message" style="html=1;verticalAlign=bottom;endArrow=block;curved=0;rounded=0;fontSize=12;startSize=8;endSize=8;" parent="1" target="5y46x8tf9IevXGczSYyH-35" edge="1">
          <mxGeometry x="-0.3793" width="80" relative="1" as="geometry">
            <mxPoint x="510" y="390" as="sourcePoint" />
            <mxPoint x="590" y="390" as="targetPoint" />
            <mxPoint as="offset" />
          </mxGeometry>
        </mxCell>
        <mxCell id="5y46x8tf9IevXGczSYyH-43" value="alt" style="shape=umlFrame;whiteSpace=wrap;html=1;pointerEvents=0;" parent="1" vertex="1">
          <mxGeometry x="425" y="420" width="585" height="200" as="geometry" />
        </mxCell>
        <mxCell id="5y46x8tf9IevXGczSYyH-44" value="Selects delete offer" style="html=1;verticalAlign=bottom;endArrow=block;curved=0;rounded=0;fontSize=12;startSize=8;endSize=8;" parent="1" edge="1" target="5y46x8tf9IevXGczSYyH-45">
          <mxGeometry x="-0.4474" width="80" relative="1" as="geometry">
            <mxPoint x="40" y="480" as="sourcePoint" />
            <mxPoint x="590" y="480" as="targetPoint" />
            <mxPoint x="1" as="offset" />
          </mxGeometry>
        </mxCell>
        <mxCell id="5y46x8tf9IevXGczSYyH-45" value="" style="html=1;points=[[0,0,0,0,5],[0,1,0,0,-5],[1,0,0,0,5],[1,1,0,0,-5]];perimeter=orthogonalPerimeter;outlineConnect=0;targetShapes=umlLifeline;portConstraint=eastwest;newEdgeStyle={&quot;curved&quot;:0,&quot;rounded&quot;:0};fillColor=#0050ef;fontColor=#ffffff;strokeColor=#001DBC;" parent="1" vertex="1">
          <mxGeometry x="800" y="470" width="10" height="120" as="geometry" />
        </mxCell>
        <mxCell id="5y46x8tf9IevXGczSYyH-46" value="SelectsDelete()" style="html=1;verticalAlign=bottom;endArrow=block;curved=0;rounded=0;" parent="1" target="5y46x8tf9IevXGczSYyH-45" edge="1">
          <mxGeometry x="-0.4737" y="-1" width="80" relative="1" as="geometry">
            <mxPoint x="40" y="519.5" as="sourcePoint" />
            <mxPoint x="485" y="519.5" as="targetPoint" />
            <mxPoint y="-1" as="offset" />
          </mxGeometry>
        </mxCell>
        <mxCell id="5y46x8tf9IevXGczSYyH-47" value="DeleteOff()" style="html=1;verticalAlign=bottom;endArrow=block;curved=0;rounded=0;" parent="1" edge="1">
          <mxGeometry width="80" relative="1" as="geometry">
            <mxPoint x="800" y="530" as="sourcePoint" />
            <mxPoint x="950" y="530" as="targetPoint" />
          </mxGeometry>
        </mxCell>
        <mxCell id="5y46x8tf9IevXGczSYyH-48" value="" style="html=1;points=[[0,0,0,0,5],[0,1,0,0,-5],[1,0,0,0,5],[1,1,0,0,-5]];perimeter=orthogonalPerimeter;outlineConnect=0;targetShapes=umlLifeline;portConstraint=eastwest;newEdgeStyle={&quot;curved&quot;:0,&quot;rounded&quot;:0};fillColor=#0050ef;fontColor=#ffffff;strokeColor=#001DBC;" parent="1" vertex="1">
          <mxGeometry x="945" y="530" width="10" height="30" as="geometry" />
        </mxCell>
        <mxCell id="5y46x8tf9IevXGczSYyH-49" value="" style="html=1;points=[[0,0,0,0,5],[0,1,0,0,-5],[1,0,0,0,5],[1,1,0,0,-5]];perimeter=orthogonalPerimeter;outlineConnect=0;targetShapes=umlLifeline;portConstraint=eastwest;newEdgeStyle={&quot;curved&quot;:0,&quot;rounded&quot;:0};fillColor=#0050ef;fontColor=#ffffff;strokeColor=#001DBC;" parent="1" vertex="1">
          <mxGeometry x="510" y="430" width="10" height="160" as="geometry" />
        </mxCell>
        <mxCell id="5y46x8tf9IevXGczSYyH-50" value="return results" style="html=1;verticalAlign=bottom;endArrow=open;dashed=1;endSize=8;curved=0;rounded=0;" parent="1" source="5y46x8tf9IevXGczSYyH-48" edge="1">
          <mxGeometry x="0.6706" relative="1" as="geometry">
            <mxPoint x="860" y="560" as="sourcePoint" />
            <mxPoint x="520" y="560" as="targetPoint" />
            <mxPoint as="offset" />
          </mxGeometry>
        </mxCell>
        <mxCell id="5y46x8tf9IevXGczSYyH-51" value="Showdeletemess()" style="html=1;verticalAlign=bottom;endArrow=block;curved=0;rounded=0;" parent="1" target="5y46x8tf9IevXGczSYyH-45" edge="1">
          <mxGeometry x="-0.5" width="80" relative="1" as="geometry">
            <mxPoint x="520" y="589" as="sourcePoint" />
            <mxPoint x="685" y="589" as="targetPoint" />
            <mxPoint x="-1" as="offset" />
          </mxGeometry>
        </mxCell>
        <mxCell id="pMLUfj82sf-V-NWl08HH-1" value="Admin AppClass" style="rounded=0;whiteSpace=wrap;html=1;" vertex="1" parent="1">
          <mxGeometry x="275" y="10" width="150" height="20" as="geometry" />
        </mxCell>
        <mxCell id="pMLUfj82sf-V-NWl08HH-2" value="" style="endArrow=none;dashed=1;html=1;rounded=0;" edge="1" parent="1">
          <mxGeometry width="50" height="50" relative="1" as="geometry">
            <mxPoint x="354.41" y="99.99999999999989" as="sourcePoint" />
            <mxPoint x="354.41" y="30" as="targetPoint" />
          </mxGeometry>
        </mxCell>
        <mxCell id="pMLUfj82sf-V-NWl08HH-4" value="" style="endArrow=none;dashed=1;html=1;rounded=0;entryX=0.465;entryY=0.653;entryDx=0;entryDy=0;entryPerimeter=0;" edge="1" parent="1" target="pMLUfj82sf-V-NWl08HH-3">
          <mxGeometry width="50" height="50" relative="1" as="geometry">
            <mxPoint x="354.41" y="650" as="sourcePoint" />
            <mxPoint x="354.41" y="149.9999999999999" as="targetPoint" />
          </mxGeometry>
        </mxCell>
        <mxCell id="pMLUfj82sf-V-NWl08HH-3" value="" style="html=1;points=[[0,0,0,0,5],[0,1,0,0,-5],[1,0,0,0,5],[1,1,0,0,-5]];perimeter=orthogonalPerimeter;outlineConnect=0;targetShapes=umlLifeline;portConstraint=eastwest;newEdgeStyle={&quot;curved&quot;:0,&quot;rounded&quot;:0};fillColor=#0050ef;fontColor=#ffffff;strokeColor=#001DBC;" vertex="1" parent="1">
          <mxGeometry x="350" y="50" width="10" height="50" as="geometry" />
        </mxCell>
        <mxCell id="pMLUfj82sf-V-NWl08HH-5" value="_init_()" style="html=1;verticalAlign=bottom;endArrow=block;curved=0;rounded=0;" edge="1" parent="1" target="5y46x8tf9IevXGczSYyH-12">
          <mxGeometry width="80" relative="1" as="geometry">
            <mxPoint x="520" y="170" as="sourcePoint" />
            <mxPoint x="650" y="170" as="targetPoint" />
          </mxGeometry>
        </mxCell>
        <mxCell id="pMLUfj82sf-V-NWl08HH-6" value="return selection" style="html=1;verticalAlign=bottom;endArrow=open;dashed=1;endSize=8;curved=0;rounded=0;" edge="1" parent="1">
          <mxGeometry x="-0.037" relative="1" as="geometry">
            <mxPoint x="655" y="220" as="sourcePoint" />
            <mxPoint x="520" y="219.9999999999999" as="targetPoint" />
            <mxPoint as="offset" />
          </mxGeometry>
        </mxCell>
        <mxCell id="pMLUfj82sf-V-NWl08HH-7" value="return selection" style="html=1;verticalAlign=bottom;endArrow=open;dashed=1;endSize=8;curved=0;rounded=0;" edge="1" parent="1">
          <mxGeometry x="0.3571" relative="1" as="geometry">
            <mxPoint x="800" y="300" as="sourcePoint" />
            <mxPoint x="520" y="300" as="targetPoint" />
            <mxPoint x="-1" as="offset" />
          </mxGeometry>
        </mxCell>
      </root>
    </mxGraphModel>
  </diagram>
</mxfile>
